#!OML:ASF E:\Steps\Project 1\Capture day 1\Session 2\Subject.ASF
:FULLY-SPECIFIED
:DEGREES
110
root 8.91814 16.2837 31.6822 -156.005 -2.79225 179.435
lowerback -28.0557 -1.38983 -6.08591
upperback -1.76102 -0.465616 -0.422022
thorax 13.7032 -0.836652 2.78462
lowerneck 3.80621 -0.654127 -3.02625
upperneck -9.76348 -0.777414 6.7686
head -3.85968 -0.700235 2.87097
rclavicle 6.01324e-015 1.07344e-014
rhumerus -35.9732 -21.1652 -76.4991
rradius 26.2192
rwrist 2.72273
rhand -5.42409 -51.3771
rfingers 7.12502
rthumb 20.3859 -80.3271
lclavicle 6.01324e-015 1.07344e-014
lhumerus -29.8894 15.315 76.3853
lradius 14.512
lwrist -15.6107
lhand -20.3402 -11.6736
lfingers 7.12502
lthumb 6.01138 18.2211
rfemur -22.8913 6.87871 19.3995
rtibia 9.51269
rfoot -19.8648 -7.46281
rtoes -33.6217
lfemur -24.8096 -9.9416 -19.2178
ltibia 12.0378
lfoot -9.43518 0.49693
ltoes -29.8047
111
root 8.91716 16.2832 31.6812 -155.988 -2.7841 179.435
lowerback -28.1282 -1.37073 -6.10851
upperback -1.75045 -0.42528 -0.449365
thorax 13.7507 -0.820984 2.78091
lowerneck 3.87499 -0.665632 -2.96709
upperneck -9.93036 -0.791196 6.75986
head -3.93131 -0.715276 2.86353
rclavicle -1.14301e-014 9.93923e-015
rhumerus -35.9928 -21.3774 -76.4191
rradius 26.0803
rwrist 2.89716
rhand -5.85867 -51.409
rfingers 7.12502
rthumb 19.9682 -80.4031
lclavicle -1.14301e-014 9.93923e-015
lhumerus -29.8748 15.5977 76.2112
lradius 14.3802
lwrist -15.9865
lhand -20.2468 -12.0017
lfingers 7.12502
lthumb 6.10155 17.8904
rfemur -22.9221 6.76828 19.4091
rtibia 9.56965
rfoot -19.918 -7.32806
rtoes -33.1242
lfemur -24.8522 -9.73774 -19.2633
ltibia 12.0892
lfoot -9.46671 0.285153
ltoes -29.8586
112
root 8.91645 16.2823 31.6794 -156.008 -2.7957 179.374
lowerback -28.1337 -1.36266 -6.2382
upperback -1.73523 -0.366358 -0.488618
thorax 13.7663 -0.801644 2.833
lowerneck 3.89551 -0.683608 -2.88123
upperneck -10.1018 -0.813528 6.74708
head -3.99461 -0.735773 2.84933
rclavicle -3.08116e-015 -5.96354e-015
rhumerus -36.0398 -21.7343 -76.2739
rradius 25.9438
rwrist 3.24498
rhand -6.00832 -51.7497
rfingers 7.12502
rthumb 19.8244 -80.7587
lclavicle -3.08116e-015 -5.96354e-015
lhumerus -29.8439 15.5106 76.1982
lradius 14.3447
lwrist -16.0951
lhand -20.1726 -12.0465
lfingers 7.12502
lthumb 6.1732 17.8436
rfemur -22.8946 6.61521 19.3667
rtibia 9.64098
rfoot -19.9941 -7.16708
rtoes -32.6299
lfemur -24.8246 -9.71233 -19.3526
ltibia 12.1044
lfoot -9.60321 0.315811
ltoes -31.035
113
root 8.91555 16.2809 31.6782 -156.024 -2.84946 179.3
lowerback -28.0975 -1.39399 -6.38546
upperback -1.74404 -0.36551 -0.480754
thorax 13.7367 -0.810114 2.92769
lowerneck 3.92949 -0.689849 -2.8711
upperneck -10.2726 -0.823342 6.74835
head -4.06171 -0.747433 2.85402
rclavicle -1.09829e-014 -6.36111e-015
rhumerus -36.1128 -21.8709 -76.1259
rradius 25.8671
rwrist 3.39443
rhand -5.74738 -51.8948
rfingers 7.12502
rthumb 20.0752 -80.8776
lclavicle -1.09829e-014 -6.36111e-015
lhumerus -29.8387 15.3059 76.3092
lradius 14.3454
lwrist -15.9422
lhand -20.158 -11.9388
lfingers 7.12502
lthumb 6.18731 17.9508
rfemur -22.8743 6.74179 19.2712
rtibia 9.71158
rfoot -19.9635 -7.41289
rtoes -33.0025
lfemur -24.7904 -9.88967 -19.4032
ltibia 12.0852
lfoot -9.59348 0.461047
ltoes -31.0604
114
root 8.9145 16.2806 31.6795 -155.996 -2.88558 179.317
lowerback -28.1025 -1.38375 -6.385
upperback -1.7651 -0.355406 -0.485951
thorax 13.713 -0.805622 2.92526
lowerneck 3.99349 -0.702694 -2.81791
upperneck -10.4337 -0.839604 6.73894
head -4.1309 -0.763463 2.84755
rclavicle -2.5842e-015 2.54444e-014
rhumerus -36.1696 -22.0393 -76.0474
rradius 25.7906
rwrist 3.49562
rhand -6.05159 -51.7202
rfingers 7.12502
rthumb 19.7828 -80.7334
lclavicle -2.5842e-015 2.54444e-014
lhumerus -29.7671 14.9471 76.4359
lradius 14.307
lwrist -15.6361
lhand -20.1507 -11.7681
lfingers 7.12502
lthumb 6.19432 18.1213
rfemur -22.9341 6.90111 19.2722
rtibia 9.77482
rfoot -20.026 -7.64784
rtoes -33.5774
lfemur -24.8719 -9.85759 -19.3736
ltibia 12.1601
lfoot -9.5111 0.391648
ltoes -30.1615
115
root 8.91358 16.28 31.6816 -155.937 -2.90135 179.385
lowerback -28.124 -1.3457 -6.31104
upperback -1.80911 -0.333981 -0.507421
thorax 13.6693 -0.791554 2.86573
lowerneck 4.03476 -0.717053 -2.72478
upperneck -10.9016 -0.818291 6.91303
head -3.86367 -0.794977 2.60583
rclavicle 8.99501e-015 -5.1684e-015
rhumerus -36.2663 -22.2838 -75.9562
rradius 25.7301
rwrist 3.79185
rhand -6.21487 -51.8707
rfingers 7.12502
rthumb 19.6258 -80.9001
lclavicle 8.99501e-015 -5.1684e-015
lhumerus -29.726 14.6011 76.4973
lradius 14.2911
lwrist -15.3923
lhand -20.0899 -11.7748
lfingers 7.12502
lthumb 6.25307 18.1129
rfemur -22.9981 6.70553 19.3776
rtibia 9.71415
rfoot -20.128 -7.44513
rtoes -33.702
lfemur -24.9898 -9.85445 -19.2745
ltibia 12.2312
lfoot -9.57925 0.384974
ltoes -30.5912
